<?xml version="1.0" standalone="no"?>
<!DOCTYPE svg PUBLIC "-//W3C//DTD SVG 20010904//EN"
 "http://www.w3.org/TR/2001/REC-SVG-20010904/DTD/svg10.dtd">
<svg version="1.0" xmlns="http://www.w3.org/2000/svg"
 width="512.000000pt" height="512.000000pt" viewBox="0 0 512.000000 512.000000"
 preserveAspectRatio="xMidYMid meet">

<g transform="translate(0.000000,512.000000) scale(0.100000,-0.100000)"
fill="#000000" stroke="none">
<path d="M2077 4092 l-487 -487 418 -418 418 -418 44 20 c59 27 141 27 200 0
l44 -20 419 419 419 419 -487 484 c-267 266 -489 485 -493 487 -4 1 -226 -217
-495 -486z"/>
<path d="M1052 3067 c-265 -265 -482 -487 -482 -492 0 -6 218 -228 485 -495
l485 -485 419 419 420 420 -22 40 c-29 56 -29 146 -1 203 l21 41 -416 416
c-229 229 -418 416 -421 416 -3 0 -222 -217 -488 -483z"/>
<path d="M3181 3136 l-415 -415 20 -43 c25 -56 25 -150 0 -206 l-20 -43 417
-417 417 -417 490 490 490 490 -486 488 c-268 268 -489 487 -493 487 -3 0
-193 -186 -420 -414z"/>
<path d="M2007 1962 l-417 -417 468 -468 c257 -257 470 -467 475 -467 4 0 7
388 7 863 l0 862 -52 20 c-29 11 -55 21 -58 22 -3 2 -193 -185 -423 -415z"/>
<path d="M2658 2357 l-48 -21 0 -865 0 -866 470 470 470 470 -417 417 c-230
230 -420 418 -423 417 -3 -1 -26 -10 -52 -22z"/>
</g>
</svg>
